<svg width="16" height="16" viewBox="0 0 16 16" fill="none" xmlns="http://www.w3.org/2000/svg">
<path d="M14.7176 3.40382L12.5962 1.28249C12.5025 1.18872 12.3753 1.13604 12.2427 1.13605C12.1101 1.13605 11.9829 1.18873 11.8891 1.2825C11.7953 1.37627 11.7427 1.50345 11.7427 1.63606C11.7427 1.76867 11.7954 1.89584 11.8891 1.98961L14.0104 4.11092C14.0569 4.15735 14.112 4.19418 14.1726 4.21931C14.2333 4.24444 14.2983 4.25737 14.364 4.25737C14.4297 4.25737 14.4947 4.24444 14.5553 4.21932C14.616 4.19419 14.6711 4.15736 14.7175 4.11093C14.764 4.0645 14.8008 4.00939 14.8259 3.94872C14.8511 3.88806 14.864 3.82304 14.864 3.75738C14.864 3.69172 14.8511 3.6267 14.8259 3.56604C14.8008 3.50538 14.764 3.45025 14.7176 3.40382H14.7176Z" fill="#2BA6FF"/>
<path d="M4.1111 1.28249C4.01733 1.18872 3.89016 1.13605 3.75755 1.13605C3.62495 1.13605 3.49778 1.18872 3.40401 1.28249L1.28267 3.40382C1.1889 3.4976 1.13623 3.62477 1.13623 3.75738C1.13623 3.88999 1.18892 4.01717 1.28269 4.11093C1.37646 4.2047 1.50363 4.25737 1.63624 4.25737C1.76885 4.25737 1.89603 4.20469 1.98979 4.11092L4.1111 1.98961C4.20486 1.89584 4.25754 1.76866 4.25754 1.63605C4.25754 1.50344 4.20486 1.37626 4.1111 1.28249Z" fill="#2BA6FF"/>
<path d="M13.9973 7.82648C13.996 7.78162 13.9944 7.73685 13.9922 7.69217C13.9921 7.69061 13.992 7.68909 13.9919 7.68756C13.9146 6.20631 13.2915 4.80618 12.2426 3.75735C11.1938 2.70853 9.79369 2.08535 8.31244 2.00809C8.31091 2.008 8.30939 2.00787 8.30783 2.00781C8.26315 2.00555 8.21838 2.00397 8.17352 2.00269C8.16681 2.0025 8.16012 2.00214 8.15338 2.00196C8.10236 2.00067 8.05123 2.00002 8 2C7.94876 2 7.89763 2.00065 7.84662 2.00195C7.83987 2.00214 7.83319 2.0025 7.82648 2.00269C7.78162 2.00397 7.73685 2.00555 7.69217 2.00781C7.69061 2.00787 7.68909 2.00799 7.68756 2.00809C6.20632 2.08537 4.80619 2.70855 3.75737 3.75737C2.70855 4.80619 2.08537 6.20632 2.00809 7.68756C2.008 7.68909 2.00787 7.69061 2.00781 7.69217C2.00555 7.73685 2.00397 7.78162 2.00269 7.82648C2.0025 7.83319 2.00214 7.83988 2.00196 7.84662C2.00067 7.89764 2.00002 7.94877 2 8C2 8.05124 2.00065 8.10237 2.00195 8.15338C2.00214 8.16013 2.0025 8.16681 2.00269 8.17352C2.00397 8.21838 2.00555 8.26315 2.00781 8.30783C2.00787 8.30939 2.00799 8.31091 2.00809 8.31244C2.08535 9.79369 2.70853 11.1938 3.75735 12.2426C4.80618 13.2915 6.20631 13.9146 7.68756 13.9919C7.68909 13.992 7.69061 13.9921 7.69217 13.9922C7.73685 13.9944 7.78162 13.996 7.82648 13.9973C7.83319 13.9975 7.83988 13.9979 7.84662 13.998C7.89764 13.9993 7.94877 14 8 14C8.05124 14 8.10237 13.9993 8.15338 13.998C8.16013 13.9979 8.16681 13.9975 8.17352 13.9973C8.21838 13.996 8.26315 13.9944 8.30783 13.9922C8.30939 13.9921 8.31091 13.992 8.31244 13.9919C9.79368 13.9146 11.1938 13.2915 12.2426 12.2426C13.2915 11.1938 13.9146 9.79368 13.9919 8.31244C13.992 8.31091 13.9921 8.30939 13.9922 8.30783C13.9944 8.26315 13.996 8.21838 13.9973 8.17352C13.9975 8.16681 13.9979 8.16012 13.998 8.15338C13.9993 8.10236 14 8.05123 14 8C14 7.94876 13.9993 7.89763 13.998 7.84662C13.9979 7.83987 13.9975 7.83319 13.9973 7.82648ZM11.5 8.5H8C7.86739 8.5 7.74022 8.44732 7.64645 8.35355C7.55268 8.25978 7.5 8.13261 7.5 8V4.5C7.5 4.36739 7.55268 4.24021 7.64645 4.14645C7.74021 4.05268 7.86739 4 8 4C8.13261 4 8.25979 4.05268 8.35355 4.14645C8.44732 4.24021 8.5 4.36739 8.5 4.5V7.5H11.5C11.6326 7.5 11.7598 7.55268 11.8536 7.64645C11.9473 7.74021 12 7.86739 12 8C12 8.13261 11.9473 8.25979 11.8536 8.35355C11.7598 8.44732 11.6326 8.5 11.5 8.5Z" fill="#2BA6FF"/>
</svg>
