<svg width="16" height="15" viewBox="0 0 16 15" fill="none" xmlns="http://www.w3.org/2000/svg">
<path d="M15.7409 3.60063L14.8861 8.30188C14.8156 8.69077 14.6107 9.04254 14.3073 9.29578C14.0039 9.54903 13.6211 9.68767 13.2259 9.6875H5.07174L5.37856 11.375H12.9375C13.2959 11.3748 13.6452 11.4887 13.9345 11.7003C14.2239 11.9118 14.4385 12.2099 14.5472 12.5515C14.6558 12.893 14.653 13.2603 14.539 13.6002C14.425 13.94 14.2058 14.2348 13.9132 14.4418C13.6205 14.6487 13.2696 14.7572 12.9112 14.7514C12.5528 14.7457 12.2055 14.626 11.9196 14.4097C11.6338 14.1934 11.4242 13.8918 11.3212 13.5484C11.2182 13.2051 11.2272 12.8379 11.3468 12.5H7.21575C7.31487 12.7793 7.33869 13.0798 7.28482 13.3712C7.23095 13.6626 7.10129 13.9347 6.90888 14.1601C6.71648 14.3856 6.4681 14.5563 6.18875 14.6553C5.90939 14.7542 5.6089 14.7779 5.31751 14.7239C5.02611 14.6698 4.75408 14.54 4.52877 14.3475C4.30347 14.1549 4.13284 13.9065 4.03404 13.6271C3.93524 13.3477 3.91176 13.0472 3.96596 12.7558C4.02016 12.4644 4.15013 12.1925 4.34279 11.9673L2.3942 1.25H1.125C0.975816 1.25 0.832742 1.19074 0.727252 1.08525C0.621763 0.979759 0.5625 0.836684 0.5625 0.6875C0.5625 0.538316 0.621763 0.395242 0.727252 0.289753C0.832742 0.184263 0.975816 0.125 1.125 0.125H2.3942C2.6577 0.124883 2.91287 0.217311 3.11517 0.386148C3.31747 0.554985 3.45405 0.789508 3.50107 1.04878L3.84446 2.9375H15.1875C15.2699 2.93751 15.3513 2.95561 15.4259 2.99053C15.5005 3.02546 15.5666 3.07634 15.6193 3.1396C15.6721 3.20285 15.7104 3.27693 15.7314 3.35659C15.7524 3.43626 15.7557 3.51957 15.7409 3.60063Z" fill="#2D3739"/>
</svg>
