<svg width="16" height="14" viewBox="0 0 16 14" fill="none" xmlns="http://www.w3.org/2000/svg">
<path d="M5.75 11.625C6.1974 11.6255 6.62632 11.8035 6.94268 12.1198C7.25903 12.4362 7.43699 12.8651 7.4375 13.3125C7.4375 13.4617 7.49676 13.6048 7.60225 13.7102C7.70774 13.8157 7.85082 13.875 8 13.875C8.14918 13.875 8.29226 13.8157 8.39775 13.7102C8.50324 13.6048 8.5625 13.4617 8.5625 13.3125C8.56301 12.8651 8.74097 12.4362 9.05732 12.1198C9.37368 11.8035 9.8026 11.6255 10.25 11.625H14.75C15.0483 11.6247 15.3342 11.506 15.5451 11.2951C15.756 11.0842 15.8747 10.7983 15.875 10.5V1.5C15.8747 1.20174 15.756 0.915786 15.5451 0.704882C15.3342 0.493977 15.0483 0.375341 14.75 0.375H11.375C10.6293 0.375847 9.91446 0.672435 9.3872 1.1997C8.85993 1.72696 8.56335 2.44184 8.5625 3.1875V8.8125C8.5625 8.96168 8.50324 9.10476 8.39775 9.21025C8.29226 9.31574 8.14918 9.375 8 9.375C7.85082 9.375 7.70774 9.31574 7.60225 9.21025C7.49676 9.10476 7.4375 8.96168 7.4375 8.8125V3.1875C7.43665 2.44184 7.14006 1.72696 6.6128 1.1997C6.08554 0.672435 5.37066 0.375847 4.625 0.375H1.25C0.951736 0.375341 0.665786 0.493977 0.454882 0.704882C0.243977 0.915786 0.125341 1.20174 0.125 1.5V10.5C0.125341 10.7983 0.243977 11.0842 0.454882 11.2951C0.665786 11.506 0.951736 11.6247 1.25 11.625H5.75Z" fill="white"/>
</svg>
