<svg width="14" height="14" viewBox="0 0 14 14" fill="none" xmlns="http://www.w3.org/2000/svg">
<path d="M13.747 6.80479C13.7455 6.75432 13.7437 6.70395 13.7412 6.65369C13.7411 6.65194 13.741 6.65022 13.7409 6.64851C13.654 4.9821 12.9529 3.40695 11.773 2.22702C10.593 1.0471 9.0179 0.346023 7.35149 0.259098C7.34978 0.258995 7.34806 0.258858 7.34631 0.258789C7.29605 0.256249 7.24568 0.254463 7.19521 0.253023C7.18766 0.252817 7.18014 0.252405 7.17255 0.252199C7.11515 0.250756 7.05763 0.250022 7 0.25C6.94236 0.25 6.88484 0.250732 6.82745 0.252197C6.81986 0.252403 6.81234 0.252815 6.80479 0.253021C6.75432 0.254463 6.70395 0.256249 6.65369 0.258787C6.65194 0.258857 6.65022 0.258993 6.64851 0.259096C4.98211 0.346037 3.40696 1.04711 2.22704 2.22704C1.04711 3.40697 0.346038 4.98211 0.259098 6.64851C0.258995 6.65022 0.258858 6.65194 0.258789 6.65369C0.256249 6.70395 0.254463 6.75432 0.253023 6.80479C0.252817 6.81234 0.252405 6.81986 0.252199 6.82745C0.250756 6.88485 0.250023 6.94237 0.25 7C0.25 7.05764 0.250732 7.11516 0.252197 7.17255C0.252403 7.18014 0.252815 7.18766 0.253021 7.19521C0.254463 7.24568 0.256249 7.29605 0.258787 7.34631C0.258857 7.34806 0.258993 7.34978 0.259096 7.35149C0.346021 9.0179 1.04709 10.593 2.22702 11.773C3.40695 12.9529 4.9821 13.654 6.64851 13.7409C6.65022 13.741 6.65194 13.7411 6.65369 13.7412C6.70395 13.7437 6.75432 13.7455 6.80479 13.747C6.81234 13.7472 6.81986 13.7476 6.82745 13.7478C6.88485 13.7492 6.94237 13.75 7 13.75C7.05764 13.75 7.11516 13.7493 7.17255 13.7478C7.18014 13.7476 7.18766 13.7472 7.19521 13.747C7.24568 13.7455 7.29605 13.7437 7.34631 13.7412C7.34806 13.7411 7.34978 13.741 7.35149 13.7409C9.01789 13.654 10.593 12.9529 11.773 11.773C12.9529 10.593 13.654 9.01789 13.7409 7.35149C13.741 7.34977 13.7411 7.34806 13.7412 7.34631C13.7438 7.29604 13.7455 7.24568 13.747 7.19521C13.7472 7.18766 13.7476 7.18014 13.7478 7.17255C13.7492 7.11515 13.75 7.05763 13.75 7C13.75 6.94236 13.7493 6.88484 13.7478 6.82745C13.7476 6.81986 13.7472 6.81234 13.747 6.80479ZM10.9375 7.5625H7C6.85082 7.5625 6.70774 7.50323 6.60225 7.39775C6.49677 7.29226 6.4375 7.14918 6.4375 7V3.0625C6.4375 2.91332 6.49676 2.77024 6.60225 2.66475C6.70774 2.55926 6.85082 2.5 7 2.5C7.14918 2.5 7.29226 2.55926 7.39775 2.66475C7.50324 2.77024 7.5625 2.91332 7.5625 3.0625V6.4375H10.9375C11.0867 6.4375 11.2298 6.49676 11.3352 6.60225C11.4407 6.70774 11.5 6.85081 11.5 7C11.5 7.14918 11.4407 7.29226 11.3352 7.39775C11.2298 7.50324 11.0867 7.5625 10.9375 7.5625Z" fill="#2BA6FF"/>
</svg>
