<svg width="18" height="13" viewBox="0 0 18 13" fill="none" xmlns="http://www.w3.org/2000/svg">
<path d="M16.7856 3.17047C16.6246 3.03612 16.4292 2.94973 16.2215 2.92114C16.0138 2.89254 15.8022 2.92291 15.611 3.00876L12.0543 4.58956L9.98345 0.861967C9.88603 0.686575 9.74348 0.540428 9.57056 0.438675C9.39765 0.336921 9.20067 0.283264 9.00004 0.283264C8.79941 0.283264 8.60243 0.336921 8.42951 0.438675C8.2566 0.540428 8.11404 0.686575 8.01662 0.861967L5.9457 4.58949L2.38847 3.00849C2.19707 2.92345 1.98574 2.89353 1.77826 2.92208C1.57078 2.95064 1.37539 3.03655 1.21409 3.17013C1.05279 3.30372 0.931974 3.47968 0.865254 3.6782C0.798535 3.87673 0.788556 4.08993 0.836441 4.29382L2.62556 11.911C2.65961 12.0585 2.72335 12.1974 2.81291 12.3194C2.90247 12.4414 3.01596 12.5439 3.14645 12.6206C3.27762 12.6978 3.42298 12.7479 3.57388 12.7678C3.72478 12.7878 3.87815 12.7772 4.02488 12.7367C7.27963 11.8381 10.717 11.8378 13.9719 12.7357C14.1186 12.7762 14.2719 12.7867 14.4227 12.7668C14.5735 12.7468 14.7188 12.6968 14.8499 12.6196C14.9803 12.543 15.0938 12.4406 15.1834 12.3187C15.2729 12.1968 15.3367 12.0579 15.3708 11.9106L17.163 4.29444C17.2118 4.09055 17.2022 3.87705 17.1355 3.67832C17.0688 3.47958 16.9475 3.30361 16.7856 3.17047ZM11.8094 9.42691C11.8018 9.50041 11.7798 9.57168 11.7445 9.63664C11.7093 9.7016 11.6616 9.75897 11.6042 9.80547C11.5467 9.85197 11.4807 9.88668 11.4098 9.90761C11.339 9.92855 11.2647 9.9353 11.1912 9.92747C9.73443 9.77449 8.26564 9.77449 6.80888 9.92747C6.6608 9.94253 6.51278 9.89828 6.39726 9.80442C6.28174 9.71056 6.20813 9.57473 6.19256 9.4267C6.17699 9.27867 6.22073 9.13051 6.31419 9.01466C6.40765 8.89882 6.54322 8.82474 6.69119 8.80865C8.2262 8.64743 9.77387 8.64743 11.3089 8.80865C11.3823 8.81637 11.4536 8.83849 11.5185 8.87374C11.5834 8.90899 11.6407 8.95668 11.6872 9.01409C11.7337 9.07151 11.7684 9.13751 11.7894 9.20834C11.8104 9.27917 11.8172 9.35344 11.8094 9.42691Z" fill="#2BA6FF"/>
</svg>
