<svg width="16" height="14" viewBox="0 0 16 14" fill="none" xmlns="http://www.w3.org/2000/svg">
<path d="M11.3766 0.25C10.7218 0.248876 10.0757 0.400575 9.48984 0.693033C8.90393 0.98549 8.39436 1.41064 8.00165 1.93465C7.46978 1.22699 6.72884 0.704495 5.88367 0.441112C5.03851 0.177729 4.13192 0.186791 3.29219 0.467016C2.45245 0.747242 1.72211 1.28444 1.20449 2.0026C0.686872 2.72075 0.408197 3.5835 0.407898 4.46875C0.407898 9.5216 7.42796 13.5109 7.72678 13.6783C7.81076 13.7253 7.9054 13.75 8.00165 13.75C8.0979 13.75 8.19253 13.7253 8.27651 13.6783C9.56763 12.9221 10.7794 12.0379 11.8936 11.0392C14.3499 8.82847 15.5954 6.61785 15.5954 4.46875C15.5941 3.35026 15.1492 2.27794 14.3584 1.48704C13.5675 0.696149 12.4951 0.251268 11.3766 0.25Z" fill="#2D3739"/>
</svg>
