<svg width="13" height="13" viewBox="0 0 13 13" fill="none" xmlns="http://www.w3.org/2000/svg">
<path d="M12.218 4.0272L1.63654 0.364357C1.45919 0.302958 1.26815 0.292704 1.08526 0.334766C0.902364 0.376828 0.734997 0.469509 0.602295 0.602211C0.469593 0.734914 0.376912 0.902281 0.33485 1.08518C0.292788 1.26807 0.303042 1.45911 0.364441 1.63645L4.02722 12.2179C4.09318 12.4155 4.22005 12.587 4.38962 12.7079C4.55918 12.8288 4.76271 12.8928 4.97095 12.8908C4.97711 12.8908 4.9834 12.8907 4.98956 12.8906C5.201 12.8892 5.4064 12.8199 5.57539 12.6928C5.74438 12.5657 5.868 12.3876 5.92798 12.1849L7.40021 7.40019L12.185 5.92796C12.3865 5.86592 12.5633 5.74176 12.6901 5.57322C12.8168 5.40467 12.887 5.20038 12.8907 4.98953C12.8943 4.77868 12.8313 4.57207 12.7104 4.39924C12.5896 4.2264 12.4172 4.09618 12.218 4.0272H12.218Z" fill="#2BA6FF"/>
</svg>
