<svg width="12" height="14" viewBox="0 0 12 14" fill="none" xmlns="http://www.w3.org/2000/svg">
<path d="M5.99963 -0.000183105C4.54147 0.00154703 3.14353 0.581565 2.11246 1.61264C1.08138 2.64372 0.501364 4.04166 0.499634 5.49982C0.499634 10.2059 5.49963 13.7606 5.71252 13.9095C5.79672 13.9683 5.89694 13.9998 5.99963 13.9998C6.10233 13.9998 6.20255 13.9683 6.28674 13.9095C6.49963 13.7606 11.4996 10.2059 11.4996 5.49982C11.4979 4.04166 10.9179 2.64372 9.88681 1.61264C8.85573 0.581565 7.45779 0.00154687 5.99963 -0.000183105ZM6 3.5C6.39556 3.5 6.78224 3.6173 7.11114 3.83706C7.44004 4.05682 7.69638 4.36918 7.84776 4.73463C7.99913 5.10008 8.03874 5.50222 7.96157 5.89018C7.8844 6.27814 7.69392 6.63451 7.41421 6.91421C7.13451 7.19392 6.77814 7.3844 6.39018 7.46157C6.00222 7.53874 5.60009 7.49913 5.23463 7.34776C4.86918 7.19638 4.55682 6.94004 4.33706 6.61114C4.1173 6.28224 4 5.89556 4 5.5C3.99999 5.23735 4.05172 4.97728 4.15223 4.73462C4.25273 4.49197 4.40005 4.27149 4.58577 4.08577C4.77149 3.90005 4.99197 3.75273 5.23462 3.65222C5.47728 3.55172 5.73735 3.49999 6 3.5Z" fill="#14B3ED"/>
</svg>
