<svg width="14" height="10" viewBox="0 0 14 10" fill="none" xmlns="http://www.w3.org/2000/svg">
<path d="M13.4994 0.488083C13.4992 0.478836 13.4987 0.469605 13.498 0.460388C13.4974 0.452866 13.4967 0.445394 13.4958 0.437973C13.4947 0.429336 13.4933 0.420746 13.4918 0.412155C13.4904 0.404405 13.489 0.396713 13.4872 0.389099C13.4854 0.380951 13.4832 0.372879 13.481 0.364822C13.4788 0.357117 13.4766 0.349488 13.4741 0.341948C13.4715 0.334073 13.4685 0.326323 13.4655 0.318573C13.4626 0.311157 13.4597 0.303817 13.4565 0.2966C13.4531 0.288971 13.4494 0.281478 13.4456 0.274001C13.442 0.266906 13.4383 0.259887 13.4344 0.25299C13.4303 0.245865 13.426 0.238861 13.4216 0.231887C13.4171 0.224853 13.4125 0.217956 13.4077 0.211166C13.4031 0.204773 13.3984 0.198501 13.3936 0.192276C13.3881 0.185272 13.3824 0.178463 13.3766 0.171767C13.3738 0.168609 13.3714 0.165252 13.3686 0.162143C13.3662 0.159518 13.3635 0.15729 13.3611 0.154727C13.355 0.148409 13.3488 0.142352 13.3424 0.136355C13.3365 0.130801 13.3306 0.125293 13.3245 0.120059C13.3185 0.114934 13.3123 0.110079 13.3061 0.105227C13.2992 0.0999145 13.2924 0.0946526 13.2854 0.0897551C13.2793 0.0854976 13.2729 0.0815455 13.2667 0.077563C13.2592 0.072863 13.2518 0.0681787 13.2442 0.0639062C13.2375 0.0601831 13.2307 0.0568113 13.2239 0.0533931C13.2163 0.0496244 13.2089 0.0458244 13.2012 0.0424557C13.1937 0.0391594 13.186 0.0362912 13.1784 0.0333612C13.171 0.0305537 13.1637 0.0277007 13.1562 0.0252588C13.1482 0.0225888 13.1399 0.0203605 13.1317 0.0181024C13.1242 0.016088 13.1169 0.0140587 13.1094 0.0123956C13.1012 0.0105494 13.0928 0.00910001 13.0844 0.00766563C13.0765 0.00632251 13.0686 0.00501055 13.0607 0.0040493C13.0528 0.00308805 13.0448 0.00244691 13.0368 0.00186753C13.028 0.00122628 13.0193 0.000722428 13.0106 0.000539303C13.007 0.000457428 13.0036 0 13 0H1C0.996643 0 0.993408 0.000442528 0.990051 0.000503778C0.980835 0.000686903 0.971619 0.0012056 0.962433 0.00189185C0.954834 0.00247185 0.947296 0.0030669 0.939819 0.00396752C0.931427 0.0049744 0.923096 0.00634748 0.914734 0.00779748C0.906769 0.00917248 0.898804 0.0105287 0.890991 0.0122831C0.883116 0.0140381 0.875366 0.0161743 0.867554 0.0183105C0.859679 0.0204774 0.851807 0.0225981 0.844086 0.0251312C0.836273 0.0276937 0.828586 0.0306701 0.820862 0.0336313C0.813568 0.0364388 0.806244 0.039185 0.799103 0.0423131C0.791138 0.0458075 0.783352 0.0497443 0.77554 0.0536811C0.768977 0.0569768 0.762415 0.0601963 0.75604 0.063767C0.748227 0.0681463 0.740598 0.0729544 0.732969 0.07779C0.726865 0.081665 0.720701 0.0855107 0.714781 0.0896463C0.70761 0.0946207 0.700683 0.0999587 0.693755 0.105362C0.68759 0.110139 0.681487 0.11493 0.675568 0.119996C0.669403 0.12526 0.663452 0.130799 0.657471 0.136429C0.651154 0.142381 0.644959 0.148423 0.638946 0.154694C0.636505 0.157273 0.633821 0.159516 0.631409 0.162141C0.628571 0.165253 0.62619 0.16861 0.623444 0.171766C0.617615 0.178464 0.611939 0.18527 0.606444 0.192274C0.601592 0.198499 0.596861 0.204774 0.592345 0.211164C0.587523 0.217954 0.582915 0.224851 0.578429 0.231885C0.574004 0.238859 0.569701 0.245862 0.565611 0.252988C0.561705 0.259885 0.558013 0.266904 0.554412 0.273999C0.550628 0.281476 0.546935 0.288969 0.543517 0.296598C0.540312 0.303815 0.537353 0.311155 0.534484 0.318571C0.531463 0.326321 0.528532 0.334071 0.525908 0.341946C0.523408 0.349484 0.521178 0.357113 0.519011 0.364821C0.516753 0.372877 0.514617 0.380949 0.512755 0.389097C0.511046 0.396711 0.509551 0.404402 0.508178 0.412153C0.506652 0.420744 0.505309 0.429334 0.50424 0.437971C0.503323 0.445402 0.502581 0.452874 0.502012 0.460386C0.50128 0.469618 0.500812 0.47885 0.500609 0.488081C0.500519 0.492081 0.5 0.495972 0.5 0.5V9C0.500303 9.26512 0.605757 9.5193 0.793228 9.70677C0.980699 9.89424 1.23488 9.9997 1.5 10H12.5C12.7651 9.9997 13.0193 9.89424 13.2068 9.70677C13.3942 9.5193 13.4997 9.26512 13.5 9V0.5C13.5 0.495972 13.4995 0.492081 13.4994 0.488083ZM1.5 1.63664L5.16913 5.00002L1.5 8.36337V1.63664ZM2.28546 9L5.90912 5.67833L6.66211 6.36858C6.75433 6.45311 6.8749 6.5 7 6.5C7.1251 6.5 7.24567 6.45311 7.33789 6.36858L8.09091 5.67831L11.7146 9H2.28546ZM8.83088 5L12.5001 1.63655L12.5006 8.36385L8.83088 5Z" fill="#7C9096"/>
</svg>
