<svg width="14" height="16" viewBox="0 0 14 16" fill="none" xmlns="http://www.w3.org/2000/svg">
<path d="M13.3705 4.42642C13.3688 4.42336 13.3676 4.42025 13.3658 4.41723C13.3651 4.41595 13.3642 4.41479 13.3635 4.41351C13.274 4.25995 13.1451 4.13305 12.9902 4.04589L7.49029 0.952141C7.34043 0.868496 7.17166 0.824585 7.00003 0.824585C6.8284 0.824585 6.65963 0.868496 6.50977 0.952141L1.0097 4.04592C0.854228 4.13349 0.725027 4.26107 0.635514 4.41543C0.634552 4.41711 0.633392 4.41863 0.632446 4.42034C0.630921 4.42306 0.629821 4.4259 0.628357 4.42864C0.544374 4.57789 0.500174 4.74622 0.5 4.91747V11.0826C0.500138 11.26 0.54741 11.4342 0.63698 11.5874C0.726549 11.7405 0.855199 11.8671 1.00976 11.9542L6.50983 15.048C6.64837 15.1254 6.80338 15.1688 6.96201 15.1743C6.97337 15.1752 6.98469 15.1763 6.99628 15.1764H7.00079C7.01654 15.1764 7.03207 15.1755 7.04745 15.174C7.20286 15.1671 7.35449 15.1239 7.49023 15.048L12.9902 11.9542C13.1448 11.8671 13.2735 11.7405 13.363 11.5874C13.4526 11.4343 13.4999 11.2601 13.5 11.0826V4.91747C13.4998 4.74536 13.4552 4.57621 13.3705 4.42642ZM7 1.82372L11.984 4.62722L10.0702 5.71447L5.02749 2.93325L7 1.82372ZM7.05688 7.42638L2.02368 4.62292L4.00241 3.50988L9.05023 6.29394L7.05688 7.42638ZM7.50761 13.8909L7.55679 8.2925L9.5639 7.15222V9.53198C9.5639 9.66458 9.61658 9.79176 9.71035 9.88553C9.80412 9.9793 9.93129 10.032 10.0639 10.032C10.1965 10.032 10.3237 9.9793 10.4175 9.88553C10.5112 9.79176 10.5639 9.66458 10.5639 9.53198V6.5841L12.5 5.48419V11.0826L7.50761 13.8909Z" fill="#2BA6FF"/>
</svg>
