<svg width="14" height="13" viewBox="0 0 14 13" fill="none" xmlns="http://www.w3.org/2000/svg">
<path d="M13.3077 1.60581C13.2478 1.55905 13.178 1.52655 13.1037 1.51079C13.0294 1.49503 12.9524 1.49641 12.8787 1.51484L9.05817 2.46998L5.22362 0.552696C5.22252 0.552147 5.22136 0.551811 5.22024 0.551278C5.20277 0.542678 5.18481 0.535102 5.16646 0.52859C5.16324 0.527446 5.15994 0.526637 5.15671 0.525554C5.14142 0.520503 5.12588 0.516191 5.11011 0.512616C5.10498 0.511457 5.09985 0.510419 5.09469 0.509429C5.07979 0.506545 5.06472 0.504357 5.04948 0.502866C5.04515 0.502424 5.04083 0.501798 5.03648 0.501477C5.01693 0.499965 4.99731 0.499613 4.97772 0.500425L4.97623 0.500562C4.95773 0.501528 4.9393 0.503526 4.92102 0.506544C4.91476 0.507551 4.9086 0.508954 4.90237 0.510206C4.89448 0.511762 4.8866 0.512876 4.87871 0.514844L0.878707 1.51484C0.770529 1.54189 0.674497 1.60432 0.605876 1.69221C0.537254 1.7801 0.499982 1.88841 0.499985 1.99992V10.9999C0.499989 11.0759 0.51731 11.1509 0.550632 11.2192C0.583953 11.2875 0.632399 11.3473 0.69229 11.394C0.752181 11.4408 0.82194 11.4733 0.896271 11.489C0.970601 11.5048 1.04755 11.5034 1.12126 11.485L4.94182 10.5299L8.77635 12.4471C8.77863 12.4482 8.78102 12.449 8.78331 12.4501C8.79684 12.4566 8.81066 12.4626 8.82475 12.4679C8.82736 12.4688 8.82993 12.47 8.83257 12.4709C8.84926 12.4769 8.86626 12.4819 8.8835 12.486C8.88617 12.4867 8.88884 12.4871 8.89151 12.4877C8.90652 12.4911 8.92172 12.4937 8.93709 12.4956C8.94026 12.4961 8.94342 12.4965 8.94661 12.4968C8.98593 12.5015 9.02568 12.5011 9.06488 12.4955C9.07187 12.4945 9.07872 12.4928 9.08568 12.4916C9.09755 12.4895 9.10939 12.488 9.12126 12.485L13.1213 11.485C13.2294 11.4579 13.3255 11.3955 13.3941 11.3076C13.4627 11.2197 13.5 11.1114 13.5 10.9999V1.99992C13.5 1.92393 13.4827 1.84894 13.4493 1.78065C13.416 1.71236 13.3676 1.65257 13.3077 1.60581ZM8.49998 11.1909L5.49998 9.6909V1.80894L8.49998 3.30894V11.1909Z" fill="white"/>
</svg>
