<svg width="16" height="16" viewBox="0 0 16 16" fill="none" xmlns="http://www.w3.org/2000/svg">
<path d="M13.8732 9.90167L10.9459 8.64709C10.793 8.5813 10.6261 8.5548 10.4604 8.57003C10.2947 8.58525 10.1355 8.64171 9.99719 8.73425L8.432 9.77759C7.47541 9.31233 6.70117 8.5415 6.23169 7.58698L6.23181 7.58685L7.27148 5.99823C7.36198 5.86031 7.41689 5.70212 7.43129 5.53779C7.44569 5.37346 7.41913 5.20813 7.354 5.05658L6.09827 2.12671C6.01279 1.92783 5.86519 1.76199 5.67757 1.65402C5.48994 1.54605 5.2724 1.50175 5.0575 1.52777C4.21304 1.63635 3.43699 2.04864 2.87432 2.68763C2.31166 3.32662 2.00086 4.14859 2 5C2 9.96265 6.03735 14 11 14C11.8514 13.9991 12.6734 13.6883 13.3124 13.1257C13.9514 12.563 14.3637 11.7869 14.4722 10.9424C14.4982 10.7275 14.4538 10.51 14.3459 10.3224C14.2379 10.1348 14.0721 9.98719 13.8732 9.90167Z" fill="#7C9096"/>
<path d="M9.83448 2.98304C10.5973 3.18814 11.2928 3.59011 11.8514 4.14865C12.4099 4.7072 12.8119 5.40272 13.017 6.16553C13.0514 6.29339 13.1352 6.40236 13.2499 6.46852C13.3646 6.53468 13.5009 6.55264 13.6288 6.51845C13.7567 6.48426 13.8659 6.40072 13.9323 6.28615C13.9987 6.17159 14.017 6.03536 13.983 5.90735C13.7323 4.97487 13.2409 4.12465 12.5581 3.44187C11.8754 2.75908 11.0251 2.26771 10.0927 2.01697C9.96465 1.98305 9.82842 2.0013 9.71385 2.06771C9.59929 2.13411 9.51574 2.24325 9.48155 2.37119C9.44736 2.49912 9.46532 2.63539 9.53149 2.75009C9.59765 2.8648 9.70662 2.94857 9.83447 2.98303L9.83448 2.98304Z" fill="#7C9096"/>
<path d="M9.31671 4.91535C9.74047 5.0293 10.1268 5.2526 10.4371 5.56288C10.7474 5.87317 10.9707 6.25954 11.0847 6.68329C11.1191 6.81115 11.2029 6.92012 11.3176 6.98628C11.4323 7.05244 11.5686 7.0704 11.6965 7.03621C11.8244 7.00202 11.9336 6.91848 12 6.80391C12.0664 6.68935 12.0846 6.55312 12.0507 6.42511C11.8912 5.83168 11.5785 5.2906 11.1439 4.85607C10.7094 4.42155 10.1683 4.10884 9.57489 3.94928C9.44689 3.91536 9.31066 3.93361 9.19609 4.00002C9.08152 4.06642 8.99798 4.17557 8.96379 4.3035C8.9296 4.43143 8.94756 4.5677 9.01372 4.6824C9.07989 4.79711 9.18885 4.88089 9.31671 4.91535L9.31671 4.91535Z" fill="#7C9096"/>
</svg>
