<svg width="12" height="12" viewBox="0 0 12 12" fill="none" xmlns="http://www.w3.org/2000/svg">
<path d="M11.25 2.5625C11.25 2.67853 11.2039 2.78981 11.1219 2.87186C11.0398 2.9539 10.9285 3 10.8125 3H10.375V10.875C10.3747 11.107 10.2825 11.3294 10.1184 11.4934C9.95439 11.6575 9.73198 11.7497 9.5 11.75H2.5C2.26802 11.7497 2.04561 11.6575 1.88157 11.4934C1.71754 11.3294 1.62527 11.107 1.625 10.875V3H1.1875C1.07147 3 0.960188 2.95391 0.878141 2.87186C0.796094 2.78981 0.75 2.67853 0.75 2.5625C0.75 2.44647 0.796094 2.33519 0.878141 2.25314C0.960188 2.17109 1.07147 2.125 1.1875 2.125H10.8125C10.9285 2.125 11.0398 2.1711 11.1219 2.25314C11.2039 2.33519 11.25 2.44647 11.25 2.5625ZM3.81271 1.25H8.18771C8.30375 1.25 8.41503 1.20391 8.49707 1.12186C8.57912 1.03981 8.62521 0.928532 8.62521 0.8125C8.62521 0.696468 8.57912 0.585188 8.49707 0.503141C8.41503 0.421094 8.30375 0.375 8.18771 0.375H3.81271C3.69668 0.375 3.5854 0.421094 3.50335 0.503141C3.42131 0.585188 3.37521 0.696468 3.37521 0.8125C3.37521 0.928532 3.42131 1.03981 3.50335 1.12186C3.5854 1.20391 3.69668 1.25 3.81271 1.25Z" fill="#F54848"/>
</svg>
