<svg width="16" height="11" viewBox="0 0 16 11" fill="none" xmlns="http://www.w3.org/2000/svg">
<path d="M15.4998 4.49631C15.4998 4.49106 15.4992 4.48581 15.499 4.48056C15.4985 4.46667 15.4976 4.45288 15.496 4.4393C15.4952 4.43341 15.4942 4.42755 15.4933 4.42166C15.4911 4.40814 15.4885 4.39483 15.4853 4.38168C15.484 4.3764 15.4827 4.37115 15.4813 4.36587C15.4771 4.35083 15.4722 4.33608 15.4667 4.32162C15.4657 4.31921 15.4652 4.31671 15.4642 4.3143L15.4611 4.30658L15.4605 4.30487L14.59 2.1286C14.5163 1.94266 14.3883 1.78323 14.2227 1.67111C14.0571 1.55898 13.8615 1.49935 13.6615 1.5H11.5V1C11.5 0.867394 11.4473 0.740221 11.3535 0.646454C11.2598 0.552687 11.1326 0.500006 11 0.5H1.5C1.23488 0.500303 0.980699 0.605757 0.793228 0.793228C0.605757 0.980699 0.500303 1.23488 0.5 1.5V8.5C0.500303 8.76512 0.605757 9.0193 0.793228 9.20677C0.980699 9.39424 1.23488 9.4997 1.5 9.5H2.31329C2.42419 9.92932 2.6746 10.3096 3.02517 10.5811C3.37574 10.8527 3.80658 11 4.25 11C4.69342 11 5.12426 10.8527 5.47483 10.5811C5.8254 10.3096 6.07581 9.92932 6.18671 9.5H9.81329C9.92419 9.92932 10.1746 10.3096 10.5252 10.5811C10.8757 10.8527 11.3066 11 11.75 11C12.1934 11 12.6243 10.8527 12.9748 10.5811C13.3254 10.3096 13.5758 9.92932 13.6867 9.5H14.5C14.7651 9.4997 15.0193 9.39424 15.2068 9.20677C15.3942 9.0193 15.4997 8.76512 15.5 8.5V4.5C15.5 4.49875 15.4998 4.49756 15.4998 4.49631ZM11.5 2.5H13.6615L14.2615 4H11.5V2.5ZM1.5 1.5H10.5V5.5H1.5V1.5ZM4.25 10C4.05222 10 3.85888 9.94135 3.69443 9.83147C3.52998 9.72159 3.40181 9.56541 3.32612 9.38268C3.25043 9.19996 3.23063 8.99889 3.26922 8.80491C3.3078 8.61093 3.40304 8.43275 3.54289 8.29289C3.68275 8.15304 3.86093 8.0578 4.05491 8.01921C4.24889 7.98063 4.44996 8.00043 4.63268 8.07612C4.81541 8.15181 4.97159 8.27998 5.08147 8.44443C5.19135 8.60888 5.25 8.80222 5.25 9C5.2497 9.26512 5.14424 9.5193 4.95677 9.70677C4.7693 9.89424 4.51512 9.9997 4.25 10ZM11.75 10C11.5522 10 11.3589 9.94135 11.1944 9.83147C11.03 9.72159 10.9018 9.56541 10.8261 9.38268C10.7504 9.19996 10.7306 8.99889 10.7692 8.80491C10.8078 8.61093 10.903 8.43275 11.0429 8.29289C11.1827 8.15304 11.3609 8.0578 11.5549 8.01921C11.7489 7.98063 11.95 8.00043 12.1327 8.07612C12.3154 8.15181 12.4716 8.27998 12.5815 8.44443C12.6914 8.60888 12.75 8.80222 12.75 9C12.7497 9.26512 12.6442 9.5193 12.4568 9.70677C12.2693 9.89424 12.0151 9.9997 11.75 10Z" fill="#2BA6FF"/>
</svg>
