<svg width="14" height="13" viewBox="0 0 14 13" fill="none" xmlns="http://www.w3.org/2000/svg">
<path d="M13.4962 12.2492C12.5632 10.6423 11.0691 9.43706 9.30121 8.86526C10.1482 8.36131 10.8063 7.59326 11.1744 6.67906C11.5426 5.76487 11.6004 4.75509 11.3391 3.80482C11.0778 2.85456 10.5117 2.01636 9.72787 1.41898C8.94401 0.821588 7.98572 0.498047 7.00018 0.498047C6.01464 0.498047 5.05635 0.821588 4.2725 1.41898C3.48865 2.01636 2.92259 2.85456 2.66126 3.80482C2.39993 4.75509 2.45779 5.76487 2.82595 6.67906C3.1941 7.59326 3.8522 8.36131 4.69915 8.86526C2.93128 9.43705 1.43721 10.6422 0.504237 12.249C0.460261 12.3251 0.437075 12.4113 0.437012 12.4991C0.436949 12.5869 0.460012 12.6732 0.50388 12.7492C0.547747 12.8253 0.610873 12.8885 0.686907 12.9324C0.76294 12.9763 0.8492 12.9994 0.937007 12.9994L13.0634 12.9996C13.1513 12.9996 13.2375 12.9765 13.3136 12.9325C13.3896 12.8886 13.4527 12.8254 13.4966 12.7494C13.5405 12.6733 13.5635 12.587 13.5635 12.4992C13.5634 12.4114 13.5402 12.3252 13.4962 12.2492L13.4962 12.2492Z" fill="#2BA6FF"/>
</svg>
