<svg width="28" height="28" viewBox="0 0 28 28" fill="none" xmlns="http://www.w3.org/2000/svg">
<path d="M0 14C0 6.26801 6.26801 0 14 0C21.732 0 28 6.26801 28 14C28 21.732 21.732 28 14 28C6.26801 28 0 21.732 0 14Z" fill="#4C6C91"/>
<path d="M14.7323 18.5943C14.7323 18.5943 15.0019 18.5649 15.1399 18.4194C15.2663 18.286 15.2619 18.0344 15.2619 18.0344C15.2619 18.0344 15.2451 16.8593 15.8009 16.6858C16.3487 16.5152 17.0521 17.8222 17.7985 18.3247C18.3624 18.7047 18.7904 18.6216 18.7904 18.6216L20.7851 18.5943C20.7851 18.5943 21.8281 18.5312 21.3336 17.7261C21.2927 17.6601 21.0451 17.1303 19.8509 16.042C18.5998 14.9027 18.7677 15.087 20.2738 13.1161C21.1912 11.9159 21.5578 11.1832 21.4432 10.8699C21.3343 10.5702 20.6595 10.6498 20.6595 10.6498L18.4142 10.6634C18.4142 10.6634 18.2477 10.6412 18.1243 10.7136C18.0038 10.7846 17.9256 10.9502 17.9256 10.9502C17.9256 10.9502 17.5706 11.8787 17.0966 12.6687C16.0967 14.3349 15.6972 14.4231 15.5336 14.3199C15.1531 14.0783 15.248 13.3506 15.248 12.8336C15.248 11.2184 15.4978 10.5451 14.7623 10.3709C14.5183 10.3128 14.3387 10.2748 13.7142 10.2684C12.9129 10.2605 12.2351 10.2713 11.851 10.4555C11.5953 10.5781 11.3981 10.852 11.5186 10.8678C11.6669 10.8871 12.0029 10.9567 12.1811 11.1947C12.4112 11.5023 12.4031 12.192 12.4031 12.192C12.4031 12.192 12.5353 14.0933 12.0942 14.3292C11.7918 14.4912 11.3769 14.1607 10.4851 12.6487C10.0286 11.8744 9.68389 11.0183 9.68389 11.0183C9.68389 11.0183 9.61742 10.8584 9.49837 10.7724C9.35448 10.6685 9.15363 10.6362 9.15363 10.6362L7.02016 10.6498C7.02016 10.6498 6.69952 10.6584 6.58192 10.7954C6.47748 10.9165 6.57389 11.1682 6.57389 11.1682C6.57389 11.1682 8.24429 15.0046 10.136 16.9382C11.8707 18.7105 13.8398 18.5943 13.8398 18.5943H14.7323Z" fill="white"/>
</svg>
