<svg width="13" height="12" viewBox="0 0 13 12" fill="none" xmlns="http://www.w3.org/2000/svg">
<path d="M11.5 2.5H1.5C1.36739 2.5 1.24021 2.44732 1.14645 2.35355C1.05268 2.25979 1 2.13261 1 2C1 1.86739 1.05268 1.74021 1.14645 1.64645C1.24021 1.55268 1.36739 1.5 1.5 1.5H10C10.1326 1.5 10.2598 1.44732 10.3536 1.35355C10.4473 1.25979 10.5 1.13261 10.5 1C10.5 0.867392 10.4473 0.740215 10.3536 0.646447C10.2598 0.552679 10.1326 0.5 10 0.5H1.5C1.10231 0.500455 0.721048 0.658636 0.439842 0.939842C0.158636 1.22105 0.000454899 1.60231 0 2V10C0.000454899 10.3977 0.158636 10.779 0.439842 11.0602C0.721048 11.3414 1.10231 11.4995 1.5 11.5H11.5C11.7651 11.4997 12.0193 11.3942 12.2068 11.2068C12.3942 11.0193 12.4997 10.7651 12.5 10.5V3.5C12.4997 3.23488 12.3942 2.9807 12.2068 2.79323C12.0193 2.60576 11.7651 2.5003 11.5 2.5ZM9.25 7.75C9.10166 7.75 8.95666 7.70601 8.83332 7.6236C8.70999 7.54119 8.61386 7.42406 8.55709 7.28701C8.50033 7.14997 8.48547 6.99917 8.51441 6.85368C8.54335 6.7082 8.61478 6.57456 8.71967 6.46967C8.82456 6.36478 8.9582 6.29335 9.10368 6.26441C9.24917 6.23547 9.39997 6.25033 9.53701 6.30709C9.67406 6.36386 9.79119 6.45999 9.8736 6.58332C9.95601 6.70666 10 6.85166 10 7C10 7.19891 9.92098 7.38968 9.78033 7.53033C9.63968 7.67098 9.44891 7.75 9.25 7.75Z" fill="#7C9096"/>
</svg>
