<svg width="14" height="13" viewBox="0 0 14 13" fill="none" xmlns="http://www.w3.org/2000/svg">
<path d="M13.7966 10.7479L8.29857 1.24786C8.16667 1.02035 7.97731 0.831493 7.74944 0.700207C7.52157 0.568921 7.26321 0.499817 7.00023 0.499817C6.73725 0.499817 6.47889 0.568921 6.25102 0.700207C6.02316 0.831493 5.83379 1.02035 5.70189 1.24786V1.24835L0.203845 10.7479C0.0718411 10.9758 0.00220878 11.2346 0.00195383 11.498C0.00169888 11.7614 0.0708303 12.0203 0.202392 12.2485C0.333954 12.4767 0.523306 12.6663 0.751394 12.7981C0.979483 12.9299 1.23826 12.9993 1.5017 12.9993H12.4988C12.7622 12.9993 13.021 12.9299 13.2491 12.7981C13.4772 12.6663 13.6665 12.4767 13.7981 12.2485C13.9296 12.0203 13.9988 11.7614 13.9985 11.498C13.9983 11.2346 13.9286 10.9758 13.7966 10.7479ZM6.49974 5.49981C6.49974 5.36721 6.55242 5.24003 6.64619 5.14626C6.73996 5.05249 6.86713 4.99981 6.99974 4.99981C7.13235 4.99981 7.25953 5.05249 7.3533 5.14626C7.44706 5.24003 7.49974 5.36721 7.49974 5.49981V7.99981C7.49974 8.13242 7.44706 8.2596 7.3533 8.35337C7.25953 8.44714 7.13235 8.49981 6.99974 8.49981C6.86713 8.49981 6.73996 8.44714 6.64619 8.35337C6.55242 8.2596 6.49974 8.13242 6.49974 7.99981V5.49981ZM7.00011 11C6.85177 11 6.70677 10.956 6.58343 10.8736C6.46009 10.7912 6.36396 10.6741 6.3072 10.537C6.25043 10.4 6.23558 10.2492 6.26452 10.1037C6.29346 9.95819 6.36489 9.82456 6.46978 9.71967C6.57467 9.61478 6.7083 9.54335 6.85379 9.51441C6.99928 9.48547 7.15008 9.50032 7.28712 9.55709C7.42417 9.61385 7.5413 9.70998 7.62371 9.83332C7.70612 9.95666 7.75011 10.1017 7.75011 10.25C7.7501 10.4489 7.67108 10.6397 7.53043 10.7803C7.38978 10.921 7.19902 11 7.00011 11Z" fill="#F54848"/>
</svg>
