<svg width="34" height="34" viewBox="0 0 34 34" fill="none" xmlns="http://www.w3.org/2000/svg">
<path d="M33.3426 2.86114C33.2619 2.30531 33.0038 1.79045 32.6066 1.39331C32.2094 0.996171 31.6945 0.738025 31.1387 0.657357C29.2871 0.381061 24.4743 0.245037 19.7841 4.935L18.3124 6.40675H8.26287C7.918 6.40584 7.57638 6.47332 7.25775 6.60528C6.93913 6.73724 6.64983 6.93107 6.40659 7.17555L1.10052 12.4817C0.764582 12.8177 0.526131 13.2385 0.410591 13.6994C0.29505 14.1603 0.306752 14.6438 0.444449 15.0985C0.582146 15.5533 0.840675 15.9621 1.19247 16.2814C1.54426 16.6008 1.97613 16.8186 2.44202 16.9118L8.92821 18.2091L15.7909 25.0718L17.0881 31.558C17.1812 32.024 17.399 32.456 17.7183 32.8079C18.0377 33.1598 18.4466 33.4184 18.9014 33.5561C19.3562 33.6938 19.8399 33.7054 20.3008 33.5898C20.7617 33.4741 21.1825 33.2355 21.5184 32.8993L26.8245 27.5932C27.069 27.35 27.2628 27.0607 27.3948 26.7421C27.5267 26.4236 27.5942 26.082 27.5932 25.7371V15.6875L29.065 14.2157C33.7552 9.52554 33.619 4.71278 33.3426 2.86114ZM8.26287 9.03175H15.6874L9.14395 15.5752L2.9568 14.3378L8.26287 9.03175ZM24.9682 25.7371L19.6622 31.0432L18.4248 24.8561L24.9682 18.3126L24.9682 25.7371Z" fill="#2BA6FF"/>
</svg>
