<svg width="42" height="42" viewBox="0 0 42 42" fill="none" xmlns="http://www.w3.org/2000/svg">
<path d="M20.999 24.9375C26.0731 24.9375 30.1865 20.8241 30.1865 15.75C30.1865 10.6759 26.0731 6.5625 20.999 6.5625C15.9249 6.5625 11.8115 10.6759 11.8115 15.75C11.8115 20.8241 15.9249 24.9375 20.999 24.9375Z" fill="#2BA6FF"/>
<path d="M20.999 1.3125C18.0262 1.31136 15.1256 2.22829 12.6936 3.93798C10.2616 5.64766 8.4169 8.06666 7.41166 10.8644C6.40641 13.6621 6.28966 16.7019 7.07737 19.5685C7.86507 22.435 9.51878 24.9884 11.8125 26.8796V39.375C11.8125 39.5987 11.8696 39.8188 11.9786 40.0142C12.0875 40.2096 12.2446 40.3739 12.435 40.4916C12.6253 40.6092 12.8425 40.6762 13.066 40.6862C13.2895 40.6963 13.5119 40.649 13.712 40.5489L20.9989 36.9049L28.2881 40.549C28.4882 40.649 28.7106 40.6963 28.9341 40.6862C29.1575 40.6761 29.3748 40.6091 29.5651 40.4915C29.7554 40.3738 29.9124 40.2095 30.0214 40.0141C30.1303 39.8187 30.1875 39.5987 30.1875 39.375V26.878C32.4807 24.9865 34.1339 22.4331 34.9212 19.5667C35.7085 16.7002 35.5914 13.6606 34.586 10.8632C33.5806 8.06577 31.7359 5.64706 29.304 3.93761C26.8721 2.22816 23.9716 1.31136 20.999 1.3125ZM20.999 27.5625C18.6627 27.5625 16.3789 26.8697 14.4364 25.5717C12.4938 24.2738 10.9798 22.4289 10.0857 20.2704C9.19164 18.112 8.95771 15.7369 9.4135 13.4455C9.86929 11.1541 10.9943 9.04931 12.6463 7.3973C14.2983 5.74529 16.4031 4.62026 18.6945 4.16447C20.9859 3.70869 23.361 3.94261 25.5195 4.83667C27.6779 5.73073 29.5228 7.24477 30.8208 9.18733C32.1187 11.1299 32.8115 13.4137 32.8115 15.75C32.808 18.8818 31.5623 21.8843 29.3478 24.0988C27.1333 26.3133 24.1308 27.559 20.999 27.5625Z" fill="#2BA6FF"/>
</svg>
