<svg width="36" height="38" viewBox="0 0 36 38" fill="none" xmlns="http://www.w3.org/2000/svg">
<path d="M34.7224 9.61911C34.7181 9.6111 34.7148 9.60293 34.7103 9.595C34.7084 9.59163 34.706 9.58859 34.7041 9.58522C34.4691 9.18214 34.1309 8.84902 33.7243 8.62023L19.287 0.499141C18.8936 0.279573 18.4506 0.164307 18 0.164307C17.5495 0.164307 17.1065 0.279573 16.7131 0.499141L2.27543 8.62032C1.86732 8.85017 1.52817 9.18508 1.29319 9.59027C1.29067 9.59468 1.28762 9.59868 1.28514 9.60317C1.28114 9.6103 1.27825 9.61775 1.27441 9.62496C1.05395 10.0167 0.937926 10.4586 0.937469 10.9081V27.0917C0.937832 27.5574 1.06192 28.0147 1.29704 28.4167C1.53216 28.8187 1.86987 29.151 2.2756 29.3796L16.7133 37.5008C17.0769 37.7041 17.4838 37.8178 17.9002 37.8324C17.9301 37.8347 17.9598 37.8375 17.9902 37.8378H18.0021C18.0434 37.8378 18.0842 37.8354 18.1245 37.8316C18.5325 37.8134 18.9305 37.7001 19.2868 37.5007L33.7243 29.3796C34.1301 29.151 34.4678 28.8187 34.703 28.4167C34.9381 28.0147 35.0622 27.5574 35.0625 27.0917V10.9081C35.0621 10.4563 34.9449 10.0123 34.7224 9.61911ZM18 2.78705L31.0829 10.1462L26.0592 13.0003L12.8221 5.69956L18 2.78705ZM18.1493 17.494L4.93713 10.1349L10.1313 7.21321L23.3818 14.5214L18.1493 17.494ZM19.3325 34.4633L19.4615 19.7676L24.7302 16.7743V23.0212C24.7302 23.3693 24.8685 23.7031 25.1146 23.9493C25.3608 24.1954 25.6946 24.3337 26.0427 24.3337C26.3908 24.3337 26.7246 24.1954 26.9708 23.9493C27.2169 23.7031 27.3552 23.3693 27.3552 23.0212V15.283L32.4375 12.3958V27.0917L19.3325 34.4633Z" fill="#2BA6FF"/>
</svg>
