<svg width="42" height="30" viewBox="0 0 42 30" fill="none" xmlns="http://www.w3.org/2000/svg">
<path d="M19.6482 28.2408C19.6066 28.4082 19.5324 28.5656 19.4299 28.7042C19.3273 28.8428 19.1984 28.9598 19.0506 29.0485C18.9027 29.1372 18.7388 29.1959 18.5683 29.2212C18.3977 29.2464 18.2239 29.2378 18.0566 29.1957L13.1119 27.9597C12.7107 27.8587 12.3388 27.665 12.0262 27.3941L8.32649 24.178C8.06376 23.9497 7.90251 23.6263 7.8782 23.2791C7.85389 22.9318 7.96852 22.5891 8.19688 22.3264C8.42523 22.0637 8.7486 21.9024 9.09585 21.8781C9.4431 21.8538 9.78578 21.9684 10.0485 22.1968L13.7486 25.413L18.6934 26.6492C18.8606 26.691 19.0179 26.7653 19.1564 26.8679C19.2949 26.9706 19.4118 27.0994 19.5005 27.2472C19.5892 27.395 19.6479 27.5589 19.6732 27.7293C19.6986 27.8998 19.6901 28.0736 19.6482 28.2408ZM41.4032 12.6145C41.2968 12.9466 41.1249 13.2541 40.8976 13.5185C40.6703 13.783 40.3922 13.9991 40.0798 14.1541L36.2624 16.0628L33.8102 18.9316C33.8016 18.9416 33.7922 18.9508 33.7834 18.9605C33.7753 18.9694 33.7673 18.9782 33.7591 18.9868C33.7528 18.9934 33.747 19.0004 33.7406 19.0068L27.7036 25.044C27.2087 25.5359 26.5392 25.8119 25.8414 25.8118C25.6288 25.8118 25.417 25.7858 25.2107 25.7342L15.7021 23.3571C15.3452 23.2684 15.0111 23.1052 14.7217 22.8784L5.8577 15.9471L1.9202 13.9783C1.60843 13.8224 1.33084 13.6059 1.10361 13.3416C0.876393 13.0772 0.704095 12.7702 0.596773 12.4386C0.48945 12.1069 0.449253 11.7572 0.478527 11.4099C0.507801 11.0625 0.605959 10.7245 0.767274 10.4155L4.80203 2.68858C5.12307 2.08097 5.66854 1.62261 6.32238 1.41105C6.97621 1.19948 7.6868 1.2514 8.30293 1.55576L11.9738 3.3912L19.9591 1.06326C20.5606 0.888123 21.2049 0.933665 21.7758 1.19167L27.1893 3.64124H29.8778L33.6972 1.73161C34.3133 1.42702 35.0239 1.37498 35.6778 1.58659C36.3317 1.79819 36.8771 2.25672 37.198 2.8645L41.2327 10.5912C41.3951 10.8999 41.4939 11.238 41.5232 11.5856C41.5525 11.9331 41.5117 12.283 41.4032 12.6145ZM30.7983 18.2368L25.6058 14.4604L24.2812 15.4537C23.1431 16.3005 21.7623 16.7579 20.3437 16.7579C18.9252 16.7579 17.5444 16.3005 16.4062 15.4537L15.5169 14.7867C15.216 14.5611 14.9672 14.2734 14.7872 13.9432C14.6072 13.613 14.5002 13.248 14.4735 12.8729C14.4469 12.4977 14.5011 12.1213 14.6326 11.7689C14.7641 11.4166 14.9698 11.0966 15.2357 10.8307L21.6562 4.41011C21.75 4.31771 21.8506 4.23241 21.9571 4.15491L20.6938 3.58331L12.7001 5.91371L8.23172 14.4711L16.3388 20.8106L25.8474 23.1877L30.7983 18.2368ZM33.8635 14.8292L29.3921 6.26623H26.9099L26.9054 6.26656C26.9034 6.26656 26.9014 6.26625 26.8994 6.26623H23.5124L17.092 12.6868L17.9812 13.3538C18.6641 13.8618 19.4926 14.1362 20.3437 14.1362C21.1949 14.1362 22.0234 13.8618 22.7063 13.3538L24.8063 11.7787C25.0308 11.6103 25.3034 11.5183 25.5841 11.5162C25.8648 11.5142 26.1387 11.6022 26.3657 11.7673L32.6032 16.3037L33.8635 14.8292Z" fill="#2BA6FF"/>
</svg>
